<svg width="130" height="31" viewBox="0 0 130 31" fill="none" xmlns="http://www.w3.org/2000/svg">
<path d="M0.52002 26.9999V0.924882H5.28002V26.9999H0.52002Z" fill="#232E35"/>
<path d="M19.6054 27.4199C17.9487 27.4199 16.4087 27.1166 14.9854 26.5099C13.5854 25.9032 12.3721 25.0632 11.3454 23.9899C10.3421 22.8932 9.60708 21.6215 9.14041 20.1749L13.0954 18.4599C13.7254 19.9532 14.6354 21.1316 15.8254 21.9949C17.0154 22.8349 18.3571 23.2549 19.8504 23.2549C20.6904 23.2549 21.4137 23.1266 22.0204 22.8699C22.6504 22.5899 23.1287 22.2166 23.4554 21.7499C23.8054 21.2832 23.9804 20.7232 23.9804 20.0699C23.9804 19.2999 23.7471 18.6699 23.2804 18.1799C22.8371 17.6666 22.1604 17.2699 21.2504 16.9899L16.2454 15.3799C14.2154 14.7499 12.6871 13.8049 11.6604 12.5449C10.6337 11.2849 10.1204 9.80322 10.1204 8.09988C10.1204 6.60655 10.4821 5.28822 11.2054 4.14488C11.9521 3.00155 12.9787 2.11488 14.2854 1.48488C15.6154 0.831549 17.1321 0.504883 18.8354 0.504883C20.3987 0.504883 21.8337 0.784883 23.1404 1.34488C24.4471 1.88155 25.5671 2.63988 26.5004 3.61988C27.4571 4.57655 28.1687 5.70822 28.6354 7.01488L24.7154 8.76488C24.2021 7.45822 23.4321 6.45488 22.4054 5.75488C21.3787 5.03155 20.1887 4.66988 18.8354 4.66988C18.0421 4.66988 17.3421 4.80988 16.7354 5.08988C16.1287 5.34655 15.6504 5.71988 15.3004 6.20988C14.9737 6.67655 14.8104 7.23655 14.8104 7.88988C14.8104 8.61322 15.0437 9.25488 15.5104 9.81488C15.9771 10.3515 16.6887 10.7715 17.6454 11.0749L22.4404 12.5799C24.5171 13.2565 26.0687 14.1899 27.0954 15.3799C28.1454 16.5699 28.6704 18.0399 28.6704 19.7899C28.6704 21.2832 28.2854 22.6016 27.5154 23.7449C26.7454 24.8882 25.6837 25.7866 24.3304 26.4399C22.9771 27.0932 21.4021 27.4199 19.6054 27.4199Z" fill="#232E35"/>
<path d="M30.5481 26.9999L39.5431 0.924882H45.7031L54.6981 26.9999H49.5181L47.6631 21.3999H37.5831L35.6931 26.9999H30.5481ZM38.9481 17.1999H46.2981L41.9581 4.21488H43.2881L38.9481 17.1999Z" fill="#232E35"/>
<path d="M69.3855 27.4199C67.4722 27.4199 65.6872 27.0816 64.0305 26.4049C62.3739 25.7282 60.9272 24.7832 59.6905 23.5699C58.4539 22.3565 57.4855 20.9332 56.7855 19.2999C56.1089 17.6432 55.7705 15.8582 55.7705 13.9449C55.7705 12.0082 56.1089 10.2232 56.7855 8.58988C57.4622 6.95655 58.4189 5.53322 59.6555 4.31988C60.8922 3.10655 62.3389 2.17322 63.9955 1.51988C65.6522 0.843216 67.4489 0.504883 69.3855 0.504883C71.3222 0.504883 73.1189 0.843216 74.7755 1.51988C76.4322 2.19655 77.8789 3.14155 79.1155 4.35488C80.3522 5.54488 81.3089 6.95655 81.9855 8.58988C82.6855 10.2232 83.0355 12.0082 83.0355 13.9449C83.0355 15.8582 82.6855 17.6432 81.9855 19.2999C81.2855 20.9332 80.3172 22.3565 79.0805 23.5699C77.8439 24.7832 76.3972 25.7282 74.7405 26.4049C73.1072 27.0816 71.3222 27.4199 69.3855 27.4199ZM69.3855 23.0799C70.6689 23.0799 71.8472 22.8582 72.9205 22.4149C73.9939 21.9482 74.9272 21.3066 75.7205 20.4899C76.5372 19.6732 77.1555 18.7049 77.5755 17.5849C78.0189 16.4649 78.2405 15.2516 78.2405 13.9449C78.2405 12.6382 78.0189 11.4366 77.5755 10.3399C77.1555 9.21988 76.5372 8.25155 75.7205 7.43488C74.9272 6.59488 73.9939 5.95322 72.9205 5.50988C71.8472 5.06655 70.6689 4.84488 69.3855 4.84488C68.1255 4.84488 66.9589 5.06655 65.8855 5.50988C64.8122 5.95322 63.8672 6.59488 63.0505 7.43488C62.2572 8.25155 61.6389 9.21988 61.1955 10.3399C60.7522 11.4366 60.5305 12.6382 60.5305 13.9449C60.5305 15.2516 60.7522 16.4649 61.1955 17.5849C61.6389 18.7049 62.2572 19.6732 63.0505 20.4899C63.8672 21.3066 64.8122 21.9482 65.8855 22.4149C66.9589 22.8582 68.1255 23.0799 69.3855 23.0799ZM75.4055 30.1499L67.2855 16.5699H72.2555L80.4805 30.1499H75.4055Z" fill="#232E35"/>
<path d="M97.3131 27.4199C95.3064 27.4199 93.5214 26.9999 91.9581 26.1599C90.4181 25.3199 89.2047 24.1649 88.3181 22.6949C87.4314 21.2249 86.9881 19.5566 86.9881 17.6899V0.924882H91.7481V17.4449C91.7481 18.5182 91.9814 19.4866 92.4481 20.3499C92.9381 21.2132 93.6031 21.8899 94.4431 22.3799C95.2831 22.8466 96.2397 23.0799 97.3131 23.0799C98.4097 23.0799 99.3664 22.8466 100.183 22.3799C101.023 21.8899 101.676 21.2132 102.143 20.3499C102.633 19.4866 102.878 18.5182 102.878 17.4449V0.924882H107.638V17.6899C107.638 19.5566 107.195 21.2249 106.308 22.6949C105.421 24.1649 104.196 25.3199 102.633 26.1599C101.093 26.9999 99.3197 27.4199 97.3131 27.4199Z" fill="#232E35"/>
<path d="M112.39 26.9999V0.924882H129.715V5.12488H117.15V11.8099H129.015V16.0099H117.15V22.7999H129.715V26.9999H112.39Z" fill="#232E35"/>
</svg>
