<svg width="112" height="50" viewBox="0 0 112 50" fill="none" xmlns="http://www.w3.org/2000/svg">
<path d="M49 21L27 43.2857L30.6667 47L52.6667 24.7143L49 21Z" fill="#70DA1C"/>
<path d="M56.3333 21L34.3333 43.2857L38 47L60 24.7143L56.3333 21Z" fill="#CCF235"/>
<path d="M4.22332 0V17.6786H0V0H4.22332Z" fill="#141414"/>
<path d="M12.2829 3.69898C13.2614 3.69898 14.1799 3.84354 15.0383 4.13265C15.8967 4.42177 16.6521 4.82993 17.3045 5.35714L15.8109 7.62755C14.695 6.93027 13.5705 6.58163 12.4374 6.58163C11.9052 6.58163 11.4931 6.67517 11.2013 6.86224C10.9266 7.03231 10.7893 7.27891 10.7893 7.60204C10.7893 7.85714 10.8493 8.06973 10.9695 8.2398C11.1069 8.39286 11.373 8.55442 11.7678 8.72449C12.1627 8.89456 12.7722 9.09864 13.5962 9.33673C15.0212 9.7449 16.077 10.2806 16.7637 10.9439C17.4676 11.5901 17.8195 12.4915 17.8195 13.648C17.8195 14.5663 17.5534 15.3656 17.0212 16.0459C16.489 16.7092 15.7594 17.2194 14.8323 17.5765C13.9052 17.9337 12.8752 18.1122 11.7421 18.1122C10.5918 18.1122 9.51883 17.9337 8.52309 17.5765C7.54451 17.2194 6.71187 16.7262 6.02515 16.0969L8.00805 13.9031C9.1583 14.7874 10.3686 15.2296 11.6391 15.2296C12.2571 15.2296 12.7378 15.119 13.0812 14.898C13.4417 14.6769 13.622 14.3622 13.622 13.9541C13.622 13.631 13.5533 13.3759 13.416 13.1888C13.2786 13.0017 13.0125 12.8316 12.6176 12.6786C12.2228 12.5085 11.5961 12.3044 10.7378 12.0663C9.38148 11.6752 8.36857 11.131 7.69902 10.4337C7.02947 9.73639 6.6947 8.86905 6.6947 7.83163C6.6947 7.04932 6.91788 6.35204 7.36425 5.7398C7.82778 5.11054 8.48017 4.61735 9.3214 4.2602C10.1798 3.88605 11.167 3.69898 12.2829 3.69898Z" fill="#141414"/>
<path d="M30.5315 13.75C30.5315 14.2602 30.6002 14.6344 30.7376 14.8724C30.8921 15.1105 31.1324 15.2891 31.4586 15.4082L30.6088 18.0357C29.7676 17.9677 29.0808 17.7891 28.5486 17.5C28.0164 17.1939 27.6044 16.7177 27.3125 16.0714C26.4198 17.432 25.0464 18.1122 23.1922 18.1122C21.836 18.1122 20.7544 17.7211 19.9475 16.9388C19.1406 16.1565 18.7371 15.1361 18.7371 13.8776C18.7371 12.398 19.2865 11.267 20.3853 10.4847C21.484 9.70238 23.0721 9.31122 25.1494 9.31122H26.54V8.72449C26.54 7.92517 26.3683 7.38095 26.0249 7.09184C25.6816 6.78571 25.0807 6.63265 24.2223 6.63265C23.7759 6.63265 23.2352 6.70068 22.5999 6.83673C21.9647 6.95578 21.3123 7.12585 20.6428 7.34694L19.7157 4.69388C20.5741 4.37075 21.4497 4.12415 22.3424 3.95408C23.2523 3.78401 24.0936 3.69898 24.8661 3.69898C26.8233 3.69898 28.2568 4.09864 29.1667 4.89796C30.0766 5.69728 30.5315 6.89626 30.5315 8.4949V13.75ZM24.3768 15.2296C25.3039 15.2296 26.0249 14.7959 26.54 13.9286V11.5306H25.5357C24.6086 11.5306 23.9133 11.6922 23.4498 12.0153C23.0034 12.3384 22.7802 12.8401 22.7802 13.5204C22.7802 14.0646 22.9175 14.4898 23.1922 14.7959C23.4841 15.085 23.879 15.2296 24.3768 15.2296Z" fill="#141414"/>
<path d="M46.0304 4.13265V23.3418L41.9616 22.9082V16.3776C41.0517 17.534 39.8413 18.1122 38.3305 18.1122C36.6309 18.1122 35.3347 17.466 34.442 16.1735C33.5664 14.881 33.1287 13.1122 33.1287 10.8673C33.1287 9.47279 33.3604 8.2398 33.824 7.16837C34.2875 6.07993 34.9399 5.22959 35.7811 4.61735C36.6395 4.0051 37.6267 3.69898 38.7426 3.69898C40.1332 3.69898 41.3092 4.23469 42.2706 5.30612L42.4766 4.13265H46.0304ZM39.5924 15.1531C40.5366 15.1531 41.3264 14.6429 41.9616 13.6224V7.78061C41.6354 7.38946 41.3092 7.10034 40.983 6.91326C40.6568 6.72619 40.2791 6.63265 39.8499 6.63265C39.0774 6.63265 38.4679 6.98129 38.0215 7.67857C37.5752 8.35884 37.352 9.43027 37.352 10.8929C37.352 12.4745 37.5408 13.5799 37.9185 14.2092C38.3134 14.8384 38.8713 15.1531 39.5924 15.1531Z" fill="#141414"/>
<path d="M60.7504 17.6786H57.2224L57.0421 15.9694C56.0464 17.398 54.6644 18.1122 52.8961 18.1122C51.6428 18.1122 50.69 17.7381 50.0376 16.9898C49.4024 16.2415 49.0848 15.1956 49.0848 13.852V4.13265H53.1536V13.3418C53.1536 14.0051 53.2566 14.4728 53.4626 14.7449C53.6858 15 54.0206 15.1276 54.467 15.1276C55.3254 15.1276 56.0636 14.6003 56.6816 13.5459V4.13265H60.7504V17.6786Z" fill="#141414"/>
<path d="M75.8737 10.6378C75.8737 11.199 75.8479 11.6837 75.7964 12.0918H67.324C67.4614 13.2313 67.7875 14.0306 68.3026 14.4898C68.8176 14.949 69.5301 15.1786 70.44 15.1786C70.9894 15.1786 71.5216 15.085 72.0366 14.898C72.5517 14.6939 73.1096 14.3878 73.7105 13.9796L75.3844 16.2245C73.7877 17.483 72.0109 18.1122 70.0537 18.1122C67.839 18.1122 66.1394 17.466 64.9548 16.1735C63.7702 14.881 63.1779 13.1463 63.1779 10.9694C63.1779 9.59184 63.4269 8.35884 63.9248 7.27041C64.4226 6.16497 65.1523 5.29762 66.1137 4.66837C67.0751 4.02211 68.2253 3.69898 69.5644 3.69898C71.5387 3.69898 73.0839 4.31122 74.1998 5.53571C75.3157 6.7602 75.8737 8.46088 75.8737 10.6378ZM71.8821 9.4898C71.8478 7.41497 71.1095 6.37755 69.6674 6.37755C68.9635 6.37755 68.4142 6.63265 68.0193 7.14286C67.6416 7.65306 67.4099 8.4949 67.324 9.66837H71.8821V9.4898Z" fill="#141414"/>
<path d="M67.2059 31.8878L66.7939 35.102H62.3903V49.5663H58.167V35.102H53.5574V31.8878H67.2059Z" fill="#141414"/>
<path d="M77.0234 49.5663L76.0964 45.7653H70.8945L69.9932 49.5663H65.6153L70.9975 31.8878H76.1221L81.5043 49.5663H77.0234ZM71.6155 42.7296H75.3753L73.4954 34.9235L71.6155 42.7296Z" fill="#141414"/>
<path d="M87.7837 31.8878C90.5821 31.8878 92.8225 32.517 94.505 33.7755C96.2046 35.017 97.0544 37.3044 97.0544 40.6378C97.0544 43.9201 96.2304 46.233 94.5822 47.5765C92.9341 48.9031 90.7967 49.5663 88.17 49.5663H82.8136V31.8878H87.7837ZM87.0369 34.9235V46.5306H88.4275C89.8181 46.5306 90.874 46.1054 91.595 45.2551C92.3161 44.3878 92.6766 42.8486 92.6766 40.6378C92.6766 39.1241 92.4963 37.9507 92.1358 37.1173C91.7753 36.284 91.286 35.7143 90.6679 35.4082C90.0499 35.085 89.2859 34.9235 88.376 34.9235H87.0369Z" fill="#141414"/>
<path d="M105.33 31.4541C106.669 31.4541 107.828 31.6412 108.807 32.0153C109.803 32.3895 110.704 32.9592 111.511 33.7245L109.554 35.9949C108.335 35.0085 107.03 34.5153 105.639 34.5153C104.901 34.5153 104.317 34.6684 103.888 34.9745C103.459 35.2636 103.244 35.6888 103.244 36.25C103.244 36.6412 103.339 36.9643 103.528 37.2194C103.716 37.4575 104.051 37.6871 104.532 37.9082C105.013 38.1292 105.734 38.3929 106.695 38.699C108.515 39.2772 109.854 39.9915 110.712 40.8418C111.571 41.6752 112 42.8656 112 44.4133C112 45.5187 111.717 46.4966 111.15 47.3469C110.584 48.1803 109.768 48.835 108.704 49.3112C107.639 49.7704 106.377 50 104.918 50C103.459 50 102.163 49.7704 101.03 49.3112C99.9138 48.852 98.9523 48.2398 98.1455 47.4745L100.283 45.1531C100.97 45.7313 101.673 46.165 102.395 46.4541C103.133 46.7432 103.931 46.8878 104.789 46.8878C105.665 46.8878 106.352 46.7007 106.85 46.3265C107.365 45.9354 107.622 45.3997 107.622 44.7194C107.622 44.2772 107.528 43.9116 107.339 43.6224C107.15 43.3163 106.824 43.0442 106.36 42.8061C105.897 42.568 105.227 42.3129 104.352 42.0408C102.377 41.4456 100.97 40.7143 100.128 39.8469C99.3043 38.9796 98.8923 37.8826 98.8923 36.5561C98.8923 35.5357 99.1669 34.6429 99.7163 33.8775C100.266 33.0952 101.03 32.5 102.008 32.0918C102.987 31.6667 104.094 31.4541 105.33 31.4541Z" fill="#141414"/>
</svg>
